<svg id="visual" viewBox="0 0 900 600" width="900" height="600" xmlns="http://www.w3.org/2000/svg" xmlns:xlink="http://www.w3.org/1999/xlink" version="1.1"><rect x="0" y="0" width="900" height="600" fill="#CCCCCC"></rect><g transform="translate(892.4713557212017 525.218060737228)"><path d="M429.8 -569.7C596.2 -470.6 797.4 -397.5 811.6 -280.9C825.8 -164.3 653.1 -4.1 577.2 174.7C501.4 353.5 522.6 550.9 442.5 688.6C362.5 826.2 181.2 904.1 -5.8 912.1C-192.8 920 -385.6 858 -541.2 745C-696.9 631.9 -815.4 467.7 -795.1 310.3C-774.8 152.9 -615.7 2.3 -498.6 -101.4C-381.5 -205.1 -306.5 -261.8 -230.4 -390.3C-154.3 -518.7 -77.1 -718.9 27.3 -756.4C131.7 -793.9 263.3 -668.8 429.8 -569.7" fill="#613a00"></path></g></svg>