<!--?xml version="1.0" standalone="no"?-->
              <svg id="sw-js-blob-svg" viewBox="0 0 100 100" xmlns="http://www.w3.org/2000/svg" version="1.1">
                    <defs> 
                        <linearGradient id="sw-gradient" x1="0" x2="1" y1="1" y2="0">
                            <stop id="stop1" stop-color="rgba(97, 58, 0, 1)" offset="0%"></stop>
                            <stop id="stop2" stop-color="rgba(251, 168, 31, 1)" offset="100%"></stop>
                        </linearGradient>
                    </defs>
                <path fill="url(#sw-gradient)" d="M11.5,-17.4C17.3,-16.5,26.1,-18.3,32.7,-15.9C39.4,-13.4,43.9,-6.7,43.8,-0.1C43.6,6.5,38.8,13.1,31.6,14.6C24.5,16.2,15,12.8,9.3,17.3C3.6,21.7,1.8,34,-0.3,34.4C-2.4,34.9,-4.7,23.5,-11.7,19.9C-18.8,16.3,-30.5,20.3,-31.1,18.3C-31.7,16.2,-21.2,8.1,-16.5,2.7C-11.8,-2.7,-12.8,-5.3,-13.7,-10.1C-14.7,-14.8,-15.5,-21.6,-13.2,-24.4C-10.9,-27.3,-5.5,-26.3,-1.3,-24C2.8,-21.7,5.7,-18.2,11.5,-17.4Z" width="100%" height="100%" transform="translate(50 50)" stroke-width="0" style="transition: all 0.3s ease 0s;"></path>
              </svg>